<mxfile host="Electron" agent="Mozilla/5.0 (X11; Linux x86_64) AppleWebKit/537.36 (KHTML, like Gecko) draw.io/26.2.2 Chrome/134.0.6998.178 Electron/35.1.2 Safari/537.36" version="26.2.2">
  <diagram id="C5RBs43oDa-KdzZeNtuy" name="Page-1">
    <mxGraphModel dx="2878" dy="1242" grid="1" gridSize="10" guides="1" tooltips="1" connect="1" arrows="1" fold="1" page="1" pageScale="1" pageWidth="2336" pageHeight="1654" math="0" shadow="0">
      <root>
        <mxCell id="WIyWlLk6GJQsqaUBKTNV-0" />
        <mxCell id="WIyWlLk6GJQsqaUBKTNV-1" parent="WIyWlLk6GJQsqaUBKTNV-0" />
        <mxCell id="fcJVb3HREh7NScvAmxeq-0" value="" style="group" parent="WIyWlLk6GJQsqaUBKTNV-1" vertex="1" connectable="0">
          <mxGeometry x="40" y="40" width="490" height="220" as="geometry" />
        </mxCell>
        <mxCell id="fcJVb3HREh7NScvAmxeq-1" value="&lt;font color=&quot;#000000&quot; size=&quot;1&quot;&gt;&lt;b style=&quot;font-size: 14px&quot;&gt;Legend:&lt;br&gt;&lt;/b&gt;&lt;/font&gt;&lt;br&gt;&lt;br&gt;&lt;br&gt;&lt;font color=&quot;#0000ff&quot; style=&quot;font-size: 6px&quot;&gt;&lt;br&gt;&lt;/font&gt;&lt;span style=&quot;color: rgb(0 , 0 , 0)&quot;&gt;&lt;font style=&quot;font-size: 4px&quot;&gt;&amp;nbsp; &amp;nbsp;&lt;/font&gt;&amp;nbsp;In progress&amp;nbsp; &amp;nbsp; &amp;nbsp; &amp;nbsp; &amp;nbsp; &amp;nbsp; In validation&amp;nbsp; &amp;nbsp; &amp;nbsp; &amp;nbsp; &amp;nbsp; &amp;nbsp;Ready to use&lt;/span&gt;&lt;font color=&quot;#000000&quot;&gt;&amp;nbsp;&lt;br&gt;&lt;/font&gt;&lt;font color=&quot;#0000ff&quot;&gt;&lt;br&gt;&lt;br&gt;&lt;br&gt;&lt;br&gt;&amp;nbsp;attribute / method()&amp;nbsp; &amp;nbsp; &amp;nbsp; &amp;nbsp; New public attribute/method to be implemented&lt;/font&gt;&lt;br&gt;&lt;font color=&quot;#000000&quot;&gt;&amp;nbsp;&lt;/font&gt;&lt;font color=&quot;#000000&quot;&gt;attribute / method()&lt;span&gt;&#x9;&lt;/span&gt;&amp;nbsp; &amp;nbsp; &amp;nbsp; &amp;nbsp;New/inherited public attribute/method that is implemented here&lt;br&gt;&lt;/font&gt;&lt;font color=&quot;#0000ff&quot;&gt;&amp;nbsp;_attribute /&amp;nbsp;&lt;/font&gt;&lt;font color=&quot;#0000ff&quot;&gt;_method()&amp;nbsp; &amp;nbsp; New protected method/attribute to be implemented&lt;/font&gt;&lt;br&gt;&lt;font color=&quot;#000000&quot;&gt;&amp;nbsp;_attribute / _method()&amp;nbsp; &amp;nbsp; New/inherited protected attribute/method that is implemented here&lt;br&gt;&lt;/font&gt;&lt;font color=&quot;#000000&quot;&gt;&lt;br&gt;&lt;br&gt;&lt;br&gt;&lt;br&gt;&lt;br&gt;&lt;/font&gt;" style="text;html=1;align=left;verticalAlign=top;whiteSpace=wrap;rounded=0;fontColor=#006600;strokeColor=#000000;shadow=1;fillColor=#ffffff;" parent="fcJVb3HREh7NScvAmxeq-0" vertex="1">
          <mxGeometry width="489.99999999999994" height="220" as="geometry" />
        </mxCell>
        <mxCell id="fcJVb3HREh7NScvAmxeq-2" value="Depends on" style="endArrow=block;html=1;labelPosition=right;verticalLabelPosition=middle;align=left;verticalAlign=middle;endFill=1;fontSize=12;" parent="fcJVb3HREh7NScvAmxeq-0" edge="1">
          <mxGeometry x="-1623.1249999999998" y="-2180" width="51.041666666666664" height="50" as="geometry">
            <mxPoint x="10.20802398989899" y="120.00301587301601" as="sourcePoint" />
            <mxPoint x="55.990852272727174" y="120.00301587301601" as="targetPoint" />
            <mxPoint x="98" as="offset" />
            <Array as="points">
              <mxPoint x="30.624999999999996" y="120" />
            </Array>
          </mxGeometry>
        </mxCell>
        <mxCell id="fcJVb3HREh7NScvAmxeq-3" value="Inherits from" style="endArrow=block;html=1;labelPosition=right;verticalLabelPosition=middle;align=left;verticalAlign=middle;endFill=0;fontSize=12;" parent="fcJVb3HREh7NScvAmxeq-0" edge="1">
          <mxGeometry x="-1623.1249999999998" y="-2180" width="51.041666666666664" height="50" as="geometry">
            <mxPoint x="10.20802398989899" y="132.3846031746034" as="sourcePoint" />
            <mxPoint x="55.990852272727174" y="132.3846031746034" as="targetPoint" />
            <mxPoint x="98" y="1" as="offset" />
          </mxGeometry>
        </mxCell>
        <mxCell id="fcJVb3HREh7NScvAmxeq-4" value="" style="swimlane;fontStyle=3;align=center;verticalAlign=top;childLayout=stackLayout;horizontal=1;startSize=26;horizontalStack=0;resizeParent=1;resizeLast=0;collapsible=1;marginBottom=0;rounded=0;shadow=1;strokeWidth=1;fillColor=#f8cecc;strokeColor=#b85450;gradientColor=#ffffff;swimlaneFillColor=#ffffff;" parent="fcJVb3HREh7NScvAmxeq-0" vertex="1">
          <mxGeometry x="10.208333333333332" y="40" width="40.83333333333333" height="34" as="geometry">
            <mxRectangle x="230" y="140" width="160" height="26" as="alternateBounds" />
          </mxGeometry>
        </mxCell>
        <mxCell id="fcJVb3HREh7NScvAmxeq-5" value="" style="line;html=1;strokeWidth=1;align=left;verticalAlign=middle;spacingTop=-1;spacingLeft=3;spacingRight=3;rotatable=0;labelPosition=right;points=[];portConstraint=eastwest;" parent="fcJVb3HREh7NScvAmxeq-4" vertex="1">
          <mxGeometry y="26" width="40.83333333333333" height="8" as="geometry" />
        </mxCell>
        <mxCell id="fcJVb3HREh7NScvAmxeq-6" value="" style="swimlane;fontStyle=3;align=center;verticalAlign=top;childLayout=stackLayout;horizontal=1;startSize=26;horizontalStack=0;resizeParent=1;resizeLast=0;collapsible=1;marginBottom=0;rounded=0;shadow=1;strokeWidth=1;fillColor=#fff2cc;strokeColor=#d6b656;gradientColor=#ffffff;swimlaneFillColor=#ffffff;" parent="fcJVb3HREh7NScvAmxeq-0" vertex="1">
          <mxGeometry x="112.29166666666666" y="40" width="40.83333333333333" height="34" as="geometry">
            <mxRectangle x="230" y="140" width="160" height="26" as="alternateBounds" />
          </mxGeometry>
        </mxCell>
        <mxCell id="fcJVb3HREh7NScvAmxeq-7" value="" style="line;html=1;strokeWidth=1;align=left;verticalAlign=middle;spacingTop=-1;spacingLeft=3;spacingRight=3;rotatable=0;labelPosition=right;points=[];portConstraint=eastwest;" parent="fcJVb3HREh7NScvAmxeq-6" vertex="1">
          <mxGeometry y="26" width="40.83333333333333" height="8" as="geometry" />
        </mxCell>
        <mxCell id="fcJVb3HREh7NScvAmxeq-8" value="" style="swimlane;fontStyle=3;align=center;verticalAlign=top;childLayout=stackLayout;horizontal=1;startSize=26;horizontalStack=0;resizeParent=1;resizeLast=0;collapsible=1;marginBottom=0;rounded=0;shadow=1;strokeWidth=1;fillColor=#dae8fc;strokeColor=#6c8ebf;gradientColor=#ffffff;swimlaneFillColor=#ffffff;" parent="fcJVb3HREh7NScvAmxeq-0" vertex="1">
          <mxGeometry x="214.37499999999997" y="40" width="40.83333333333333" height="34" as="geometry">
            <mxRectangle x="230" y="140" width="160" height="26" as="alternateBounds" />
          </mxGeometry>
        </mxCell>
        <mxCell id="fcJVb3HREh7NScvAmxeq-9" value="" style="line;html=1;strokeWidth=1;align=left;verticalAlign=middle;spacingTop=-1;spacingLeft=3;spacingRight=3;rotatable=0;labelPosition=right;points=[];portConstraint=eastwest;" parent="fcJVb3HREh7NScvAmxeq-8" vertex="1">
          <mxGeometry y="26" width="40.83333333333333" height="8" as="geometry" />
        </mxCell>
        <mxCell id="1s4E6dsTAfM4Sj1OL9Xe-28" value="Point &#xa;(bf.math.properties.Property)" style="swimlane;fontStyle=3;align=center;verticalAlign=top;childLayout=stackLayout;horizontal=1;startSize=40;horizontalStack=0;resizeParent=1;resizeLast=0;collapsible=1;marginBottom=0;rounded=0;shadow=1;strokeWidth=1;fillColor=#dae8fc;strokeColor=#6c8ebf;swimlaneFillColor=#ffffff;gradientColor=#FFFFFF;" parent="WIyWlLk6GJQsqaUBKTNV-1" vertex="1">
          <mxGeometry x="320" y="320" width="300" height="380" as="geometry">
            <mxRectangle x="230" y="140" width="160" height="26" as="alternateBounds" />
          </mxGeometry>
        </mxCell>
        <mxCell id="1s4E6dsTAfM4Sj1OL9Xe-30" value="C_PLOT_COLOR = &#39;red&#39;&#39;" style="text;align=left;verticalAlign=top;spacingLeft=4;spacingRight=4;overflow=hidden;rotatable=0;points=[[0,0.5],[1,0.5]];portConstraint=eastwest;" parent="1s4E6dsTAfM4Sj1OL9Xe-28" vertex="1">
          <mxGeometry y="40" width="300" height="26" as="geometry" />
        </mxCell>
        <mxCell id="1s4E6dsTAfM4Sj1OL9Xe-31" value="C_PLOT_MARKER = &#39;+&#39;" style="text;align=left;verticalAlign=top;spacingLeft=4;spacingRight=4;overflow=hidden;rotatable=0;points=[[0,0.5],[1,0.5]];portConstraint=eastwest;" parent="1s4E6dsTAfM4Sj1OL9Xe-28" vertex="1">
          <mxGeometry y="66" width="300" height="26" as="geometry" />
        </mxCell>
        <mxCell id="1s4E6dsTAfM4Sj1OL9Xe-32" value="" style="line;html=1;strokeWidth=1;align=left;verticalAlign=middle;spacingTop=-1;spacingLeft=3;spacingRight=3;rotatable=0;labelPosition=right;points=[];portConstraint=eastwest;" parent="1s4E6dsTAfM4Sj1OL9Xe-28" vertex="1">
          <mxGeometry y="92" width="300" height="8" as="geometry" />
        </mxCell>
        <mxCell id="1s4E6dsTAfM4Sj1OL9Xe-33" value="init_plot( p_figure: Figure = None, &#xa;               p_plot_settings : PlotSettings = None,&#xa;               **p_kwargs )" style="text;align=left;verticalAlign=top;spacingLeft=4;spacingRight=4;overflow=hidden;rotatable=0;points=[[0,0.5],[1,0.5]];portConstraint=eastwest;fontColor=default;" parent="1s4E6dsTAfM4Sj1OL9Xe-28" vertex="1">
          <mxGeometry y="100" width="300" height="54" as="geometry" />
        </mxCell>
        <mxCell id="1s4E6dsTAfM4Sj1OL9Xe-40" value="_update_plot_2d( p_settings:PlotSettings,&#xa;                             **p_kwargs )" style="text;align=left;verticalAlign=top;spacingLeft=4;spacingRight=4;overflow=hidden;rotatable=0;points=[[0,0.5],[1,0.5]];portConstraint=eastwest;fontColor=default;" parent="1s4E6dsTAfM4Sj1OL9Xe-28" vertex="1">
          <mxGeometry y="154" width="300" height="39" as="geometry" />
        </mxCell>
        <mxCell id="1s4E6dsTAfM4Sj1OL9Xe-41" value="_update_plot_3d( p_settings:PlotSettings,&#xa;                             **p_kwargs )" style="text;align=left;verticalAlign=top;spacingLeft=4;spacingRight=4;overflow=hidden;rotatable=0;points=[[0,0.5],[1,0.5]];portConstraint=eastwest;fontColor=default;" parent="1s4E6dsTAfM4Sj1OL9Xe-28" vertex="1">
          <mxGeometry y="193" width="300" height="40" as="geometry" />
        </mxCell>
        <mxCell id="6PEqEbHC5DDouQsg19ED-2" value="_update_plot_nd( p_settings:PlotSettings,&#xa;                             **p_kwargs )" style="text;align=left;verticalAlign=top;spacingLeft=4;spacingRight=4;overflow=hidden;rotatable=0;points=[[0,0.5],[1,0.5]];portConstraint=eastwest;fontColor=#808080;" parent="1s4E6dsTAfM4Sj1OL9Xe-28" vertex="1">
          <mxGeometry y="233" width="300" height="40" as="geometry" />
        </mxCell>
        <mxCell id="6PEqEbHC5DDouQsg19ED-4" value="_remove_plot_2d()" style="text;align=left;verticalAlign=top;spacingLeft=4;spacingRight=4;overflow=hidden;rotatable=0;points=[[0,0.5],[1,0.5]];portConstraint=eastwest;" parent="1s4E6dsTAfM4Sj1OL9Xe-28" vertex="1">
          <mxGeometry y="273" width="300" height="26" as="geometry" />
        </mxCell>
        <mxCell id="6PEqEbHC5DDouQsg19ED-5" value="_remove_plot_3d()" style="text;align=left;verticalAlign=top;spacingLeft=4;spacingRight=4;overflow=hidden;rotatable=0;points=[[0,0.5],[1,0.5]];portConstraint=eastwest;" parent="1s4E6dsTAfM4Sj1OL9Xe-28" vertex="1">
          <mxGeometry y="299" width="300" height="26" as="geometry" />
        </mxCell>
        <mxCell id="6PEqEbHC5DDouQsg19ED-6" value="_remove_plot_nd()" style="text;align=left;verticalAlign=top;spacingLeft=4;spacingRight=4;overflow=hidden;rotatable=0;points=[[0,0.5],[1,0.5]];portConstraint=eastwest;fontColor=#808080;" parent="1s4E6dsTAfM4Sj1OL9Xe-28" vertex="1">
          <mxGeometry y="325" width="300" height="26" as="geometry" />
        </mxCell>
        <mxCell id="6PEqEbHC5DDouQsg19ED-3" value="renormalize( p_normalizer : Normalizer )" style="text;align=left;verticalAlign=top;spacingLeft=4;spacingRight=4;overflow=hidden;rotatable=0;points=[[0,0.5],[1,0.5]];portConstraint=eastwest;" parent="1s4E6dsTAfM4Sj1OL9Xe-28" vertex="1">
          <mxGeometry y="351" width="300" height="26" as="geometry" />
        </mxCell>
        <mxCell id="llk4SEEAY7Rz__Gnm68I-0" value="HyperCuboid &#xa;(bf.math.properties.Property)" style="swimlane;fontStyle=3;align=center;verticalAlign=top;childLayout=stackLayout;horizontal=1;startSize=40;horizontalStack=0;resizeParent=1;resizeLast=0;collapsible=1;marginBottom=0;rounded=0;shadow=1;strokeWidth=1;fillColor=#dae8fc;strokeColor=#6c8ebf;swimlaneFillColor=#ffffff;gradientColor=#FFFFFF;" parent="WIyWlLk6GJQsqaUBKTNV-1" vertex="1">
          <mxGeometry x="740" y="320" width="300" height="708" as="geometry">
            <mxRectangle x="230" y="140" width="160" height="26" as="alternateBounds" />
          </mxGeometry>
        </mxCell>
        <mxCell id="6PEqEbHC5DDouQsg19ED-7" value="C_PLOT_COLOR = &#39;blue&#39;" style="text;align=left;verticalAlign=top;spacingLeft=4;spacingRight=4;overflow=hidden;rotatable=0;points=[[0,0.5],[1,0.5]];portConstraint=eastwest;" parent="llk4SEEAY7Rz__Gnm68I-0" vertex="1">
          <mxGeometry y="40" width="300" height="26" as="geometry" />
        </mxCell>
        <mxCell id="6PEqEbHC5DDouQsg19ED-8" value="C_PLOT_ALPHA = 0.05" style="text;align=left;verticalAlign=top;spacingLeft=4;spacingRight=4;overflow=hidden;rotatable=0;points=[[0,0.5],[1,0.5]];portConstraint=eastwest;" parent="llk4SEEAY7Rz__Gnm68I-0" vertex="1">
          <mxGeometry y="66" width="300" height="26" as="geometry" />
        </mxCell>
        <mxCell id="6PEqEbHC5DDouQsg19ED-9" value="C_PLOT_FILL = True" style="text;align=left;verticalAlign=top;spacingLeft=4;spacingRight=4;overflow=hidden;rotatable=0;points=[[0,0.5],[1,0.5]];portConstraint=eastwest;" parent="llk4SEEAY7Rz__Gnm68I-0" vertex="1">
          <mxGeometry y="92" width="300" height="26" as="geometry" />
        </mxCell>
        <mxCell id="6PEqEbHC5DDouQsg19ED-10" value="C_PLOT_LINEWIDTH = 1" style="text;align=left;verticalAlign=top;spacingLeft=4;spacingRight=4;overflow=hidden;rotatable=0;points=[[0,0.5],[1,0.5]];portConstraint=eastwest;" parent="llk4SEEAY7Rz__Gnm68I-0" vertex="1">
          <mxGeometry y="118" width="300" height="26" as="geometry" />
        </mxCell>
        <mxCell id="llk4SEEAY7Rz__Gnm68I-4" value="" style="line;html=1;strokeWidth=1;align=left;verticalAlign=middle;spacingTop=-1;spacingLeft=3;spacingRight=3;rotatable=0;labelPosition=right;points=[];portConstraint=eastwest;" parent="llk4SEEAY7Rz__Gnm68I-0" vertex="1">
          <mxGeometry y="144" width="300" height="8" as="geometry" />
        </mxCell>
        <mxCell id="llk4SEEAY7Rz__Gnm68I-5" value="__init__( p_name : str,&#xa;               p_derivative_order_max : int = 0,&#xa;               p_value_prev : ValuePrev = False,&#xa;               p_properties : PropertyDefinitions = [],&#xa;               p_visualize : bool = False,&#xa;               **p_kwargs )" style="text;align=left;verticalAlign=top;spacingLeft=4;spacingRight=4;overflow=hidden;rotatable=0;points=[[0,0.5],[1,0.5]];portConstraint=eastwest;fontColor=default;" parent="llk4SEEAY7Rz__Gnm68I-0" vertex="1">
          <mxGeometry y="152" width="300" height="93" as="geometry" />
        </mxCell>
        <mxCell id="llk4SEEAY7Rz__Gnm68I-6" value="_get()" style="text;align=left;verticalAlign=top;spacingLeft=4;spacingRight=4;overflow=hidden;rotatable=0;points=[[0,0.5],[1,0.5]];portConstraint=eastwest;" parent="llk4SEEAY7Rz__Gnm68I-0" vertex="1">
          <mxGeometry y="245" width="300" height="26" as="geometry" />
        </mxCell>
        <mxCell id="llk4SEEAY7Rz__Gnm68I-7" value="set( p_value,&#xa;       p_time_stamp,&#xa;       p_upd_time_stamp : bool = True,&#xa;       p_upd_derivatives : bool = True )" style="text;align=left;verticalAlign=top;spacingLeft=4;spacingRight=4;overflow=hidden;rotatable=0;points=[[0,0.5],[1,0.5]];portConstraint=eastwest;" parent="llk4SEEAY7Rz__Gnm68I-0" vertex="1">
          <mxGeometry y="271" width="300" height="69" as="geometry" />
        </mxCell>
        <mxCell id="llk4SEEAY7Rz__Gnm68I-8" value="_init_plot_2d( p_figure:Figure, &#xa;                       p_settings: PlotSettings )" style="text;align=left;verticalAlign=top;spacingLeft=4;spacingRight=4;overflow=hidden;rotatable=0;points=[[0,0.5],[1,0.5]];portConstraint=eastwest;fontColor=default;" parent="llk4SEEAY7Rz__Gnm68I-0" vertex="1">
          <mxGeometry y="340" width="300" height="39" as="geometry" />
        </mxCell>
        <mxCell id="llk4SEEAY7Rz__Gnm68I-9" value="_init_plot_3d( p_figure:Figure, &#xa;                       p_settings: PlotSettings )" style="text;align=left;verticalAlign=top;spacingLeft=4;spacingRight=4;overflow=hidden;rotatable=0;points=[[0,0.5],[1,0.5]];portConstraint=eastwest;fontColor=default;" parent="llk4SEEAY7Rz__Gnm68I-0" vertex="1">
          <mxGeometry y="379" width="300" height="40" as="geometry" />
        </mxCell>
        <mxCell id="llk4SEEAY7Rz__Gnm68I-10" value="_init_plot_nd( p_figure:Figure, &#xa;                       p_settings: PlotSettings )" style="text;align=left;verticalAlign=top;spacingLeft=4;spacingRight=4;overflow=hidden;rotatable=0;points=[[0,0.5],[1,0.5]];portConstraint=eastwest;fontColor=#808080;" parent="llk4SEEAY7Rz__Gnm68I-0" vertex="1">
          <mxGeometry y="419" width="300" height="40" as="geometry" />
        </mxCell>
        <mxCell id="llk4SEEAY7Rz__Gnm68I-11" value="_update_plot_2d( p_settings:PlotSettings,&#xa;                             **p_kwargs ) -&gt; bool" style="text;align=left;verticalAlign=top;spacingLeft=4;spacingRight=4;overflow=hidden;rotatable=0;points=[[0,0.5],[1,0.5]];portConstraint=eastwest;fontColor=default;" parent="llk4SEEAY7Rz__Gnm68I-0" vertex="1">
          <mxGeometry y="459" width="300" height="39" as="geometry" />
        </mxCell>
        <mxCell id="llk4SEEAY7Rz__Gnm68I-12" value="_update_plot_3d( p_settings:PlotSettings,&#xa;                             **p_kwargs ) -&gt; bool" style="text;align=left;verticalAlign=top;spacingLeft=4;spacingRight=4;overflow=hidden;rotatable=0;points=[[0,0.5],[1,0.5]];portConstraint=eastwest;fontColor=default;" parent="llk4SEEAY7Rz__Gnm68I-0" vertex="1">
          <mxGeometry y="498" width="300" height="40" as="geometry" />
        </mxCell>
        <mxCell id="llk4SEEAY7Rz__Gnm68I-13" value="_update_plot_nd( p_settings:PlotSettings,&#xa;                             **p_kwargs )" style="text;align=left;verticalAlign=top;spacingLeft=4;spacingRight=4;overflow=hidden;rotatable=0;points=[[0,0.5],[1,0.5]];portConstraint=eastwest;fontColor=#808080;" parent="llk4SEEAY7Rz__Gnm68I-0" vertex="1">
          <mxGeometry y="538" width="300" height="40" as="geometry" />
        </mxCell>
        <mxCell id="6PEqEbHC5DDouQsg19ED-11" value="_remove_plot_2d()" style="text;align=left;verticalAlign=top;spacingLeft=4;spacingRight=4;overflow=hidden;rotatable=0;points=[[0,0.5],[1,0.5]];portConstraint=eastwest;" parent="llk4SEEAY7Rz__Gnm68I-0" vertex="1">
          <mxGeometry y="578" width="300" height="26" as="geometry" />
        </mxCell>
        <mxCell id="6PEqEbHC5DDouQsg19ED-12" value="_remove_plot_3d()" style="text;align=left;verticalAlign=top;spacingLeft=4;spacingRight=4;overflow=hidden;rotatable=0;points=[[0,0.5],[1,0.5]];portConstraint=eastwest;" parent="llk4SEEAY7Rz__Gnm68I-0" vertex="1">
          <mxGeometry y="604" width="300" height="26" as="geometry" />
        </mxCell>
        <mxCell id="6PEqEbHC5DDouQsg19ED-13" value="_remove_plot_nd()" style="text;align=left;verticalAlign=top;spacingLeft=4;spacingRight=4;overflow=hidden;rotatable=0;points=[[0,0.5],[1,0.5]];portConstraint=eastwest;fontColor=#808080;" parent="llk4SEEAY7Rz__Gnm68I-0" vertex="1">
          <mxGeometry y="630" width="300" height="26" as="geometry" />
        </mxCell>
        <mxCell id="6PEqEbHC5DDouQsg19ED-14" value="renormalize( p_normalizer : Normalizer )" style="text;align=left;verticalAlign=top;spacingLeft=4;spacingRight=4;overflow=hidden;rotatable=0;points=[[0,0.5],[1,0.5]];portConstraint=eastwest;" parent="llk4SEEAY7Rz__Gnm68I-0" vertex="1">
          <mxGeometry y="656" width="300" height="26" as="geometry" />
        </mxCell>
        <mxCell id="6PEqEbHC5DDouQsg19ED-15" value="check_collision( p_hypercuboid ) -&gt; bool" style="text;align=left;verticalAlign=top;spacingLeft=4;spacingRight=4;overflow=hidden;rotatable=0;points=[[0,0.5],[1,0.5]];portConstraint=eastwest;" parent="llk4SEEAY7Rz__Gnm68I-0" vertex="1">
          <mxGeometry y="682" width="300" height="26" as="geometry" />
        </mxCell>
        <mxCell id="D22bGA9lNpuuK5Y_KjJX-20" style="edgeStyle=orthogonalEdgeStyle;rounded=0;orthogonalLoop=1;jettySize=auto;html=1;endArrow=block;endFill=0;" edge="1" parent="WIyWlLk6GJQsqaUBKTNV-1" source="D22bGA9lNpuuK5Y_KjJX-0" target="1s4E6dsTAfM4Sj1OL9Xe-28">
          <mxGeometry relative="1" as="geometry" />
        </mxCell>
        <mxCell id="D22bGA9lNpuuK5Y_KjJX-0" value="Crosshair&#xa;(bf.math.properties.Property)" style="swimlane;fontStyle=3;align=center;verticalAlign=top;childLayout=stackLayout;horizontal=1;startSize=40;horizontalStack=0;resizeParent=1;resizeLast=0;collapsible=1;marginBottom=0;rounded=0;shadow=1;strokeWidth=1;fillColor=#dae8fc;strokeColor=#6c8ebf;swimlaneFillColor=#ffffff;gradientColor=#FFFFFF;" vertex="1" parent="WIyWlLk6GJQsqaUBKTNV-1">
          <mxGeometry x="320" y="820" width="300" height="290" as="geometry">
            <mxRectangle x="230" y="140" width="160" height="26" as="alternateBounds" />
          </mxGeometry>
        </mxCell>
        <mxCell id="D22bGA9lNpuuK5Y_KjJX-1" value="C_PLOT_COLOR = &#39;blue&#39;" style="text;align=left;verticalAlign=top;spacingLeft=4;spacingRight=4;overflow=hidden;rotatable=0;points=[[0,0.5],[1,0.5]];portConstraint=eastwest;" vertex="1" parent="D22bGA9lNpuuK5Y_KjJX-0">
          <mxGeometry y="40" width="300" height="26" as="geometry" />
        </mxCell>
        <mxCell id="D22bGA9lNpuuK5Y_KjJX-5" value="" style="line;html=1;strokeWidth=1;align=left;verticalAlign=middle;spacingTop=-1;spacingLeft=3;spacingRight=3;rotatable=0;labelPosition=right;points=[];portConstraint=eastwest;" vertex="1" parent="D22bGA9lNpuuK5Y_KjJX-0">
          <mxGeometry y="66" width="300" height="8" as="geometry" />
        </mxCell>
        <mxCell id="D22bGA9lNpuuK5Y_KjJX-9" value="_init_plot_2d( p_figure:Figure, &#xa;                       p_settings: PlotSettings )" style="text;align=left;verticalAlign=top;spacingLeft=4;spacingRight=4;overflow=hidden;rotatable=0;points=[[0,0.5],[1,0.5]];portConstraint=eastwest;fontColor=default;" vertex="1" parent="D22bGA9lNpuuK5Y_KjJX-0">
          <mxGeometry y="74" width="300" height="39" as="geometry" />
        </mxCell>
        <mxCell id="D22bGA9lNpuuK5Y_KjJX-10" value="_init_plot_3d( p_figure:Figure, &#xa;                       p_settings: PlotSettings )" style="text;align=left;verticalAlign=top;spacingLeft=4;spacingRight=4;overflow=hidden;rotatable=0;points=[[0,0.5],[1,0.5]];portConstraint=eastwest;fontColor=default;" vertex="1" parent="D22bGA9lNpuuK5Y_KjJX-0">
          <mxGeometry y="113" width="300" height="40" as="geometry" />
        </mxCell>
        <mxCell id="D22bGA9lNpuuK5Y_KjJX-12" value="_update_plot_2d( p_settings:PlotSettings,&#xa;                             **p_kwargs ) -&gt; bool" style="text;align=left;verticalAlign=top;spacingLeft=4;spacingRight=4;overflow=hidden;rotatable=0;points=[[0,0.5],[1,0.5]];portConstraint=eastwest;fontColor=default;" vertex="1" parent="D22bGA9lNpuuK5Y_KjJX-0">
          <mxGeometry y="153" width="300" height="39" as="geometry" />
        </mxCell>
        <mxCell id="D22bGA9lNpuuK5Y_KjJX-13" value="_update_plot_3d( p_settings:PlotSettings,&#xa;                             **p_kwargs ) -&gt; bool" style="text;align=left;verticalAlign=top;spacingLeft=4;spacingRight=4;overflow=hidden;rotatable=0;points=[[0,0.5],[1,0.5]];portConstraint=eastwest;fontColor=default;" vertex="1" parent="D22bGA9lNpuuK5Y_KjJX-0">
          <mxGeometry y="192" width="300" height="40" as="geometry" />
        </mxCell>
        <mxCell id="D22bGA9lNpuuK5Y_KjJX-15" value="_remove_plot_2d()" style="text;align=left;verticalAlign=top;spacingLeft=4;spacingRight=4;overflow=hidden;rotatable=0;points=[[0,0.5],[1,0.5]];portConstraint=eastwest;" vertex="1" parent="D22bGA9lNpuuK5Y_KjJX-0">
          <mxGeometry y="232" width="300" height="26" as="geometry" />
        </mxCell>
        <mxCell id="D22bGA9lNpuuK5Y_KjJX-16" value="_remove_plot_3d()" style="text;align=left;verticalAlign=top;spacingLeft=4;spacingRight=4;overflow=hidden;rotatable=0;points=[[0,0.5],[1,0.5]];portConstraint=eastwest;" vertex="1" parent="D22bGA9lNpuuK5Y_KjJX-0">
          <mxGeometry y="258" width="300" height="26" as="geometry" />
        </mxCell>
      </root>
    </mxGraphModel>
  </diagram>
</mxfile>
